PathFileType	4	(X/Y/Z)	C:/Users/Carlo/Dropbox/Carlos/SARAH/CongressoMarcha2025/WorkshopOpenSim/C3D/Caso02/Walking04.c3d.trc
DataRate	CameraRate	NumFrames	NumMarkers	Units	OrigDataRate	OrigDataStartFrame	OrigNumFrames
100.000000	100.000000	2	197	mm	100.000000	200	321
Frame#	Time	LFHD			RFHD			LBHD			RBHD			C7			STRN			LSHO			LUPA			LELB			LFRM			LWRA			LFIN			RSHO			RUPA			RELB			RFRM			RWRA			RWRB			RFIN			RASI			LANK			LHEE			LTOE			RTHI			RKNE			RTIB			RANK			RHEE			RTOE			PELO			PELA			PELL			PELP			LFEO			LFEA			LFEL			LFEP			LTIO			LTIA			LTIL			LTIP			LFOO			LFOA			LFOL			LFOP			RFEO			RFEA			RFEL			RFEP			RTIO			RTIA			RTIL			RTIP			RFOO			RFOA			RFOL			RFOP			LTOO			LTOA			LTOL			LTOP			RTOO			RTOA			RTOL			RTOP			HEDO			HEDA			HEDL			HEDP			LCLO			LCLA			LCLL			LCLP			RCLO			RCLA			RCLL			RCLP			TRXO			TRXA			TRXL			TRXP			LHUO			LHUA			LHUL			LHUP			LRAO			LRAA			LRAL			LRAP			LHNO			LHNA			LHNL			LHNP			RHUO			RHUA			RHUL			RHUP			RRAO			RRAA			RRAL			RRAP			RHNO			RHNA			RHNL			RHNP			LWRB			LTIB			LASI			LTHI			LKNE			RPSI			CLAV			RBAK			LPSI			T10			LHipAngles			LKneeAngles			LAbsAnkleAngle			LAnkleAngles			RHipAngles			RKneeAngles			RAnkleAngles			RAbsAnkleAngle			LPelvisAngles			RPelvisAngles			LFootProgressAngles			RFootProgressAngles			RNeckAngles			LNeckAngles			RSpineAngles			LSpineAngles			LShoulderAngles			LElbowAngles			LWristAngles			RShoulderAngles			RElbowAngles			RWristAngles			RThoraxAngles			LThoraxAngles			RHeadAngles			LHeadAngles			LHipPower			LKneePower			LAnklePower			RHipPower			RKneePower			RAnklePower			LWaistPower			RWaistPower			LNeckPower			RNeckPower			LShoulderPower			RShoulderPower			LElbowPower			RElbowPower			LWristPower			RWristPower			LGroundReactionForce			LNormalisedGRF			RGroundReactionForce			RNormalisedGRF			LAnkleForce			RAnkleForce			RKneeForce			LKneeForce			RHipForce			LHipForce			LWaistForce			RWaistForce			LNeckForce			RNeckForce			LShoulderForce			RShoulderForce			LElbowForce			RElbowForce			LWristForce			RWristForce			LGroundReactionMoment			RGroundReactionMoment			LAnkleMoment			RAnkleMoment			RKneeMoment			LKneeMoment			RHipMoment			LHipMoment			LWaistMoment			RWaistMoment			LNeckMoment			RNeckMoment			LShoulderMoment			RShoulderMoment			LElbowMoment			RElbowMoment			LWristMoment			RWristMoment			CentreOfMass			CentreOfMassFloor			
		X1	Y1	Z1	X2	Y2	Z2	X3	Y3	Z3	X4	Y4	Z4	X5	Y5	Z5	X6	Y6	Z6	X7	Y7	Z7	X8	Y8	Z8	X9	Y9	Z9	X10	Y10	Z10	X11	Y11	Z11	X12	Y12	Z12	X13	Y13	Z13	X14	Y14	Z14	X15	Y15	Z15	X16	Y16	Z16	X17	Y17	Z17	X18	Y18	Z18	X19	Y19	Z19	X20	Y20	Z20	X21	Y21	Z21	X22	Y22	Z22	X23	Y23	Z23	X24	Y24	Z24	X25	Y25	Z25	X26	Y26	Z26	X27	Y27	Z27	X28	Y28	Z28	X29	Y29	Z29	X30	Y30	Z30	X31	Y31	Z31	X32	Y32	Z32	X33	Y33	Z33	X34	Y34	Z34	X35	Y35	Z35	X36	Y36	Z36	X37	Y37	Z37	X38	Y38	Z38	X39	Y39	Z39	X40	Y40	Z40	X41	Y41	Z41	X42	Y42	Z42	X43	Y43	Z43	X44	Y44	Z44	X45	Y45	Z45	X46	Y46	Z46	X47	Y47	Z47	X48	Y48	Z48	X49	Y49	Z49	X50	Y50	Z50	X51	Y51	Z51	X52	Y52	Z52	X53	Y53	Z53	X54	Y54	Z54	X55	Y55	Z55	X56	Y56	Z56	X57	Y57	Z57	X58	Y58	Z58	X59	Y59	Z59	X60	Y60	Z60	X61	Y61	Z61	X62	Y62	Z62	X63	Y63	Z63	X64	Y64	Z64	X65	Y65	Z65	X66	Y66	Z66	X67	Y67	Z67	X68	Y68	Z68	X69	Y69	Z69	X70	Y70	Z70	X71	Y71	Z71	X72	Y72	Z72	X73	Y73	Z73	X74	Y74	Z74	X75	Y75	Z75	X76	Y76	Z76	X77	Y77	Z77	X78	Y78	Z78	X79	Y79	Z79	X80	Y80	Z80	X81	Y81	Z81	X82	Y82	Z82	X83	Y83	Z83	X84	Y84	Z84	X85	Y85	Z85	X86	Y86	Z86	X87	Y87	Z87	X88	Y88	Z88	X89	Y89	Z89	X90	Y90	Z90	X91	Y91	Z91	X92	Y92	Z92	X93	Y93	Z93	X94	Y94	Z94	X95	Y95	Z95	X96	Y96	Z96	X97	Y97	Z97	X98	Y98	Z98	X99	Y99	Z99	X100	Y100	Z100	X101	Y101	Z101	X102	Y102	Z102	X103	Y103	Z103	X104	Y104	Z104	X105	Y105	Z105	X106	Y106	Z106	X107	Y107	Z107	X108	Y108	Z108	X109	Y109	Z109	X110	Y110	Z110	X111	Y111	Z111	X112	Y112	Z112	X113	Y113	Z113	X114	Y114	Z114	X115	Y115	Z115	X116	Y116	Z116	X117	Y117	Z117	X118	Y118	Z118	X119	Y119	Z119	X120	Y120	Z120	X121	Y121	Z121	X122	Y122	Z122	X123	Y123	Z123	X124	Y124	Z124	X125	Y125	Z125	X126	Y126	Z126	X127	Y127	Z127	X128	Y128	Z128	X129	Y129	Z129	X130	Y130	Z130	X131	Y131	Z131	X132	Y132	Z132	X133	Y133	Z133	X134	Y134	Z134	X135	Y135	Z135	X136	Y136	Z136	X137	Y137	Z137	X138	Y138	Z138	X139	Y139	Z139	X140	Y140	Z140	X141	Y141	Z141	X142	Y142	Z142	X143	Y143	Z143	X144	Y144	Z144	X145	Y145	Z145	X146	Y146	Z146	X147	Y147	Z147	X148	Y148	Z148	X149	Y149	Z149	X150	Y150	Z150	X151	Y151	Z151	X152	Y152	Z152	X153	Y153	Z153	X154	Y154	Z154	X155	Y155	Z155	X156	Y156	Z156	X157	Y157	Z157	X158	Y158	Z158	X159	Y159	Z159	X160	Y160	Z160	X161	Y161	Z161	X162	Y162	Z162	X163	Y163	Z163	X164	Y164	Z164	X165	Y165	Z165	X166	Y166	Z166	X167	Y167	Z167	X168	Y168	Z168	X169	Y169	Z169	X170	Y170	Z170	X171	Y171	Z171	X172	Y172	Z172	X173	Y173	Z173	X174	Y174	Z174	X175	Y175	Z175	X176	Y176	Z176	X177	Y177	Z177	X178	Y178	Z178	X179	Y179	Z179	X180	Y180	Z180	X181	Y181	Z181	X182	Y182	Z182	X183	Y183	Z183	X184	Y184	Z184	X185	Y185	Z185	X186	Y186	Z186	X187	Y187	Z187	X188	Y188	Z188	X189	Y189	Z189	X190	Y190	Z190	X191	Y191	Z191	X192	Y192	Z192	X193	Y193	Z193	X194	Y194	Z194	X195	Y195	Z195	X196	Y196	Z196	X197	Y197	Z197	

201	2	-929.5466308593755	1693.341918945313	361.8493652343751	-941.0141601562505	1690.951293945313	233.7881317138673	-780.9614868164067	1647.178833007813	349.4093627929689	-805.3513183593755	1654.678833007813	209.6798706054689	-772.3181152343755	1476.145141601563	278.4647521972657	-966.5971069335942	1241.996826171875	301.6471252441407	-811.941772460938	1421.0615234375	492.6687927246096	-825.6159667968755	1254.32080078125	543.0935058593752	-823.8552246093755	1079.407958984375	568.1043701171877	-890.2363281250005	968.021362304688	590.7703857421877	-1003.768676757813	879.2096557617192	549.0383300781252	-1028.02880859375	803.6041870117192	602.529235839844	-843.522338867188	1406.12353515625	71.55350494384768	-805.9476928710942	1192.883056640625	17.48344802856446	-774.535766601563	1075.5078125	10.48906612396241	-828.4265747070317	937.2165527343755	6.356478691101078	-854.4470214843755	814.548950195313	47.7131805419922	-785.820922851563	812.023803710938	12.5317668914795	-837.205444335938	735.8791503906252	7.570202350616459	-930.076293945313	995.1401367187505	213.5785980224611	-420.7557067871096	167.5025177001954	418.9734497070315	-360.7764282226564	176.8323059082032	373.7359619140626	-492.488952636719	39.74336242675783	374.2750854492189	-1010.440734863282	652.8605957031252	156.9259185791016	-1047.631591796875	510.3943481445315	193.222381591797	-1079.662841796875	260.4642333984376	181.4867401123047	-1108.75927734375	79.27088928222659	193.2716674804689	-1048.2333984375	44.12567520141603	237.7426300048829	-1245.650390625	49.28239059448245	238.6362762451173	-863.1547241210942	894.4707031250005	309.7756347656251	-990.6411743164067	897.1859741210942	334.9626464843751	-837.9545288085942	894.8515014648442	437.2878112792971	-860.5647583007817	1024.420654296875	308.875701904297	-721.8348388671877	494.2830200195315	388.2766113281252	-1121.197875976563	365.4476623535157	362.191864013672	-751.216979980469	500.4541320800784	807.6432495117192	-849.9584960937505	894.4495239257817	373.4112854003907	-424.2057800292971	166.3073883056641	374.1218566894532	-734.9552001953127	-117.0467071533204	405.5755310058596	-391.873718261719	177.5074768066407	794.4470214843755	-707.4609985351565	478.4436645507815	387.5930175781252	-503.9085083007815	61.08421707153323	383.5262451171876	-639.7751464843752	186.0052337646485	393.3242492675784	-498.5768737792971	52.40838623046878	568.0725097656252	-378.7172851562501	197.0271301269532	386.3002929687502	-1024.720825195313	502.0783996582034	248.5955657958986	-1383.543334960938	638.805114746094	417.5932617187502	-865.847290039063	444.4118652343752	632.5769653320315	-876.3510742187505	894.4918823242192	246.1399688720704	-1100.601318359375	76.65828704833987	237.4488372802736	-1498.182373046875	145.5429229736329	314.9413146972657	-1026.114501953125	52.80348968505862	640.8140258789065	-1028.477172851563	481.0178833007815	248.0437469482423	-1236.116455078125	71.13201141357425	225.3564453125001	-1227.951049804688	260.3992614746095	242.0251770019532	-1234.966796875	54.39899063110354	414.7905883789065	-1046.1201171875	63.09926223754886	223.4938201904298	-545.6389160156252	15.76990985870362	382.6015625000001	-590.9277954101565	57.4102478027344	385.8675537109377	-543.8616943359377	12.87797832489014	444.1170043945315	-503.9085083007815	61.08421707153323	383.5262451171876	-1299.448486328125	73.80961608886722	225.9773101806642	-1296.726684570313	136.8987121582032	231.5335845947267	-1299.065185546875	68.23191070556643	289.122039794922	-1236.116333007813	71.13206481933597	225.3563690185548	-772.383422851563	1574.029296875001	275.7255859375001	-988.7004394531255	1636.764038085938	303.539276123047	-744.486755371094	1570.381347656251	500.9161071777346	-709.6855468750002	1792.096557617188	271.4910888671876	-816.591430664063	1364.628295898438	480.1118774414065	-1014.839172363282	1359.675415039063	575.779479980469	-798.9403686523442	1578.859741210938	527.780456542969	-910.746948242188	1415.218017578125	287.6166992187501	-845.9956665039067	1350.766235351563	88.68360900878909	-1054.900634765625	1340.125	24.1341018676758	-855.3303833007817	1141.8310546875	153.3377075195313	-910.746948242188	1415.218139648438	287.6166992187501	-910.7470092773442	1415.218139648438	287.6167297363282	-1129.484497070313	1408.57861328125	305.2098693847657	-928.1201782226567	1407.976684570313	68.88078308105472	-903.5516967773442	1195.893920898438	294.3061828613282	-806.374389648438	1073.446899414063	528.7200317382815	-511.198181152344	1084.268676757813	531.5029907226565	-801.8502807617192	1024.969848632813	237.3724365234376	-816.5914916992192	1364.628662109375	480.1119384765627	-974.1404418945317	856.1282348632817	562.274353027344	-769.6772460937505	702.7176513671877	590.9752197265627	-970.200805664063	813.9144897460942	308.5693359375001	-818.1179199218755	1058.234619140625	531.0688476562502	-1068.33984375	728.4151611328127	600.334899902344	-1111.7333984375	801.879760742188	739.4488525390627	-942.3388671875005	658.2364501953127	676.6987915039065	-974.1406250000005	856.128295898438	562.274353027344	-748.6895141601565	1079.208374023438	45.28169250488283	-479.9736938476565	1182.886962890625	-0.9608268737792973	-807.1627807617192	1103.763671875	-239.4527130126954	-845.9956054687505	1350.76611328125	88.68354797363284	-817.0215454101567	812.099243164063	36.27901458740236	-573.8469238281252	751.7487792968752	-18.86423110961915	-868.446411132813	833.6946411132817	-214.1325988769532	-753.472839355469	1060.510864257813	44.65149307250978	-834.8779296875005	653.4453125000002	23.07244491577149	-906.8152465820317	673.3413696289065	-118.6791076660157	-976.9008178710942	663.3149414062502	96.53279113769537	-817.0215454101567	812.099243164063	36.27901077270509	-948.8186035156255	838.6855468750005	587.5791625976565	-576.3695068359377	341.7564697265626	451.3606262207034	-888.5663452148442	995.767456054688	423.6172485351565	-799.4212036132817	715.9177856445315	481.462585449219	-726.0628051757815	495.1709899902346	448.6221313476565	-737.8143310546877	987.229370117188	204.4071807861329	-917.7212524414067	1415.00634765625	288.1776733398439	-697.6631469726565	1309.791381835938	230.4888916015626	-713.1322021484377	995.717895507813	341.5438537597657	-709.2805175781252	1217.484741210938	278.1614379882814	-5.219932556152346	14.29687309265137	-18.25361824035645	5.14436721801758	-6.689998626708988	24.25942039489748	0	0	-5.159191131591799	-0.8298126459121709	4.957913398742678	-5.178615570068361	-3.759286165237429	13.34457588195801	19.21870803833009	2.5905659198761	-12.5377311706543	10.43787670135498	2.097924947738648	-10.01777839660645	-7.794336795806888	0	0	-7.674780368804935	0.3967208564281466	-11.1736011505127	-1.141788244247437	-0.3967208564281466	11.1736011505127	-1.141788244247437	3.039099931716921	0.8599805831909184	-42.64228820800783	-5.02862071990967	0.5611788034439089	-92.42095947265628	-2.884424448013307	-2.437242984771729	-17.70099258422852	2.884424448013307	2.437242984771729	-17.70099258422852	1.584728717803956	6.671843051910404	2.903997898101808	-1.584728717803956	-6.671843051910404	2.903997898101808	7.711117744445804	5.12552070617676	0.4891173243522646	7.95138679647378e-16	3.854037314982019e-12	39.32907104492189	6.340683460235599	112.4244003295899	-1.956838488578797	9.252756118774418	7.202604293823246	-18.42803192138673	3.97569339823689e-16	1.749305127835e-12	34.55163955688478	1.11414122581482	105.3516998291016	-8.34096717834473	-1.746068120002747	4.598430633544924	1.879021763801576	1.746068120002747	-4.598430633544924	1.879021763801576	-1.06917428970337	7.041069507598881	16.04078674316407	1.06917428970337	-7.041069507598881	16.04078674316407	0	0.7929434180259709	0	0	-0.5276710987091067	0	0	3.150786161422731	0	nan	nan	nan	nan	nan	nan	nan	nan	nan	nan	nan	nan	nan	nan	nan	nan	nan	nan	nan	nan	nan	0	0.007323260419070724	0	0	0.02377824485301973	0	0	-0.008667039684951309	0	0	0.00578590761870146	0	0	0.001136262202635408	0	0	-0.0001537885545985774	0	-1.5436749458313	3.028083086013796	-0.02894173376262189	-0.2950227856636048	30.86730957031251	-15.73572826385499	nan	nan	nan	nan	nan	nan	0.2226779907941819	1.286641240119935	3.202478647232057	nan	nan	nan	nan	nan	nan	0.1232102811336518	-2.801216125488282	1.390118479728699	nan	nan	nan	-0.5314227938652041	-2.542267560958863	-0.1195696443319321	nan	nan	nan	nan	nan	nan	nan	nan	nan	nan	nan	nan	-0.1373693645000458	0.5334724783897402	0.07926290482282641	0.08401707559823993	0.5059368610382082	0.1434859484434128	-0.04736467078328135	0.2338760942220689	-0.09081629663705829	0.05681149289011958	0.2165438681840898	-0.104872576892376	-0.004012049175798895	0.06694979220628741	0.02483051456511022	0.01903187483549119	0.06295754760503772	0.02189273573458195	106.569320678711	36.80438232421876	-303.3841247558595	nan	nan	nan	271.0320739746095	149.2063598632813	511.8707275390627	nan	nan	nan	nan	nan	nan	366.5871887207032	112.8173904418946	80.56320953369143	nan	nan	nan	380.8053283691407	-47.9592628479004	-124.1877517700196	nan	nan	nan	nan	nan	nan	nan	nan	nan	nan	nan	nan	31.02084732055665	-4.414482116699221	19.6372356414795	34.97568130493165	-5.85761880874634	-2.659721851348878	7.099758625030521	0.1100892648100854	-11.3465166091919	10.54553699493409	0.1496679782867432	-21.39602088928223	-0.465812534093857	3.410605055415517e-15	2.057153463363648	1.290738224983216	4.973799171496527e-16	1.209072351455689	-845.2129516601567	978.4769897460942	299.5789489746095	-845.2129516601567	0	299.5789489746095	
202	2.01	-942.0596313476567	1694.874755859376	359.5708923339845	-954.3563842773442	1691.975830078126	231.6020355224611	-793.9404907226567	1647.555053710938	346.2601928710939	-819.246704101563	1654.648559570313	206.6867675781251	-786.4640502929692	1476.985473632813	276.1033630371095	-980.5471191406255	1242.939819335938	300.1749572753907	-825.5360717773442	1422.75244140625	490.5841369628909	-836.8580932617192	1255.874145507813	540.9906005859377	-833.0055541992192	1081.050903320313	565.4291992187502	-896.9669799804692	968.368774414063	588.7546386718752	-1009.132934570313	877.1178588867192	548.4384765625002	-1030.940551757813	801.401245117188	602.7751464843752	-858.9237670898442	1406.482543945313	69.75024414062503	-823.041625976563	1193.061767578125	15.63917636871339	-792.1503906250005	1075.563110351563	8.444580078125004	-847.2064819335942	937.709594726563	4.797572612762453	-874.3305053710942	815.438598632813	46.18076705932619	-805.6492309570317	812.0161132812505	11.22102737426758	-857.7012329101567	736.3865966796877	6.448355674743656	-943.2887573242192	997.0471191406255	212.2458953857423	-435.3838195800784	174.3722076416016	418.5405883789065	-377.5855712890626	187.6539459228516	371.9786987304689	-494.0288391113284	39.28378677368165	373.3071899414064	-1027.447387695313	657.3530273437502	159.353988647461	-1063.212646484375	512.9851684570315	194.8905792236329	-1087.276000976563	261.7561340332032	182.4056854248047	-1108.610473632813	80.066764831543	194.0106658935548	-1048.634765625	44.36059570312501	238.0242919921876	-1246.22314453125	48.22608184814456	240.1520996093751	-876.873168945313	895.4367675781255	307.3164367675782	-1004.376098632813	898.3705444335942	332.3952636718751	-851.8031616210942	894.7671508789067	434.8530883789065	-873.865356445313	1025.380859375	307.4074096679689	-742.5152587890627	492.091003417969	390.6353454589846	-1144.374267578125	369.7122497558595	361.2711791992189	-776.3198242187505	502.4106445312502	810.254516601563	-863.742553710938	894.889282226563	370.9632873535157	-439.928161621094	172.4244384765626	373.8130187988282	-741.5303955078127	-115.3355407714844	416.9871826171877	-397.6065368652346	190.5641632080079	790.362670898438	-727.8148193359377	476.5608215332034	389.8180236816409	-507.5519104003909	59.04819107055667	383.0731811523439	-655.9532470703127	168.3218231201172	397.1216125488284	-497.7644348144534	48.64957427978518	567.3477172851565	-397.8145141601565	207.7498474121095	385.6358947753909	-1037.192626953125	503.9148254394534	248.7508850097657	-1385.471557617188	637.1353759765627	439.441101074219	-857.0649414062505	441.1245422363284	621.6049804687502	-890.0039062500005	895.984252929688	243.6695251464845	-1097.462036132813	77.346305847168	237.5228881835939	-1490.090454101563	130.0858306884766	341.4169921875001	-995.9987182617192	52.58694458007815	633.5338134765627	-1040.185302734375	482.732604980469	248.1933441162111	-1233.07958984375	71.10991668701175	227.0298767089845	-1225.925659179688	260.1441040039064	246.561737060547	-1229.449340820313	51.43183517456058	416.1494140625002	-1043.073608398438	64.3684997558594	222.6811828613282	-544.1309814453127	9.480989456176761	382.2189331054689	-593.598083496094	45.90553283691408	386.9017028808596	-540.8685302734377	6.014788627624515	443.6437683105471	-507.5518798828127	59.04817962646487	383.0731811523439	-1296.414794921875	73.357048034668	228.4794464111329	-1294.030029296875	136.3684387207032	234.9901275634767	-1295.204711914063	66.79763031005862	291.5193176269532	-1233.079467773438	71.10984039306643	227.0298309326173	-786.348510742188	1574.015625000001	272.825408935547	-1001.991149902344	1638.463500976563	301.9295654296876	-756.8486328125002	1571.115356445313	497.822448730469	-722.0808105468752	1791.594116210938	267.2037963867189	-830.1654663085942	1366.271118164063	478.2378234863284	-1028.073486328125	1361.495483398438	574.291931152344	-812.6029663085942	1580.547607421876	525.0767822265627	-924.721069335938	1416.06591796875	285.8931274414064	-861.2712402343755	1351.173095703125	87.05175781250003	-1070.246704101563	1340.293823242188	23.91881561279298	-870.1177368164067	1142.737426757813	152.2528686523438	-924.7209472656255	1416.06591796875	285.8931884765626	-924.721069335938	1416.06591796875	285.8931579589845	-1143.23095703125	1409.287841796875	303.2944946289064	-941.863891601563	1407.81103515625	67.41369628906253	-917.313598632813	1197.019897460938	293.5881652832032	-815.776489257813	1075.425170898438	525.8848876953127	-521.055847167969	1089.817749023438	524.7368164062502	-814.5840454101567	1027.779296875	234.6853637695314	-830.1654663085942	1366.271240234375	478.2379150390627	-978.809204101563	854.7419433593755	561.3253173828127	-770.9467773437505	705.2456054687502	586.6370239257815	-977.7694702148442	813.1975097656255	307.4166564941407	-827.1887817382817	1059.977172851563	528.3657226562502	-1069.69677734375	725.3892211914065	601.7148437500002	-1112.29443359375	798.8284301757817	741.0565185546877	-941.0543823242192	658.3179321289065	676.3912353515627	-978.8091430664067	854.7418823242192	561.3252563476565	-766.0986938476565	1079.077514648438	43.10300445556642	-497.1599426269534	1180.931030273438	-5.095615386962892	-826.4262695312505	1103.880615234375	-241.098846435547	-861.2713012695317	1351.173095703125	87.05183410644534	-836.9082641601567	812.534301757813	34.87181472778322	-594.6535644531252	749.9338378906252	-22.01475143432618	-889.9958496093755	834.3606567382817	-215.2232360839845	-771.0553588867192	1060.419189453125	42.52673339843751	-856.1773071289067	654.0213623046877	22.3340015411377	-927.4836425781255	673.9239501953127	-119.7017364501954	-998.3002929687505	665.5269165039065	95.29637145996097	-836.9082641601567	812.5343627929692	34.87181091308595	-952.768188476563	837.919799804688	586.3286743164065	-593.8911132812502	345.5538330078126	452.1964111328127	-902.160522460938	995.948608398438	421.4742431640627	-817.0847167968755	714.998718261719	482.1498107910159	-747.3719482421877	493.5736083984377	450.9218444824221	-750.884460449219	988.7821655273442	204.2548980712892	-931.6955566406255	1415.849609375	286.4485778808595	-711.5839843750002	1311.104125976563	228.0270385742189	-726.5193481445315	995.755737304688	341.777313232422	-723.0219726562502	1218.442993164063	277.5338134765626	-6.101524353027347	14.620512008667	-17.25661277770997	6.372063636779789	-8.307966232299808	26.40575790405275	0	0	-10.16837787628174	-1.156000137329102	6.232518196105961	-10.22948360443116	-2.926637649536134	16.56427192687989	19.0492172241211	3.729990243911745	-11.90087509155274	12.17293930053712	2.857033252716065	-13.15312194824219	-6.133608818054203	0	0	-5.972100734710695	-0.04010916501283647	-11.12469577789307	-1.326000690460206	0.04010916501283647	11.12469577789307	-1.326000690460206	4.359583854675295	0.7944632172584538	-36.42622375488283	-5.896480083465578	1.310291051864624	-92.03199768066409	-2.977467060089112	-2.895983695983888	-18.15954780578614	2.977467060089112	2.895983695983888	-18.15954780578614	2.300297260284425	6.689081192016605	3.092237710952761	-2.300297260284425	-6.689081192016605	3.092237710952761	7.329658031463627	4.435813426971437	-0.3042508959770204	0	-4.483787039571975e-12	38.9031105041504	6.807078361511234	112.6317901611329	-2.018101692199708	9.668353080749515	7.621915817260746	-17.95824813842774	1.987846699118445e-16	-3.167832532749439e-12	34.69539260864259	0.9742470979690556	104.7340698242188	-8.350836753845218	-2.010812997817994	4.553845882415773	1.936845660209657	2.010812997817994	-4.553845882415773	1.936845660209657	-1.419419765472413	7.370493888854984	16.45593643188477	1.419419765472413	-7.370493888854984	16.45593643188477	0	0.9868898391723637	0	0	-0.532294809818268	0	0	1.609278798103333	0	nan	nan	nan	nan	nan	nan	nan	nan	nan	nan	nan	nan	nan	nan	nan	nan	nan	nan	nan	nan	nan	0	0.005993280559778217	0	0	0.0265274476259947	0	0	-0.007876995950937275	0	0	0.005763285327702762	0	0	0.001416635815985501	0	0	-0.0003254660114180298	0	-0.8617848753929143	1.789980411529542	0.02306156978011132	0.2350822687149049	18.24648666381837	-8.784758567810062	nan	nan	nan	nan	nan	nan	0.2335597872734071	0.8839880824089055	1.540070295333863	nan	nan	nan	nan	nan	nan	0.3136800229549409	-1.287948846817017	0.7729306817054753	nan	nan	nan	0.01865591108798981	-0.8193033337593083	-0.1984423547983171	nan	nan	nan	nan	nan	nan	nan	nan	nan	nan	nan	nan	-0.1420879065990449	0.4935315847396853	0.07925440371036532	0.0619231462478638	0.4661315381526949	0.146824985742569	-0.0453840233385563	0.2197634130716325	-0.08473975211381915	0.05384827405214312	0.2020620405673982	-0.09856114536523825	-0.00394036900252104	0.06263320893049243	0.02257419936358929	0.02011987380683423	0.0594495087862015	0.0226378794759512	72.76932525634768	19.00756454467774	-201.8969116210939	nan	nan	nan	147.7536621093751	125.315773010254	263.509490966797	nan	nan	nan	nan	nan	nan	283.4342041015626	86.85417938232425	102.0314102172852	nan	nan	nan	427.4646606445315	-48.00730895996097	-102.1764373779297	nan	nan	nan	nan	nan	nan	nan	nan	nan	nan	nan	nan	30.50453186035158	-3.819304704666139	17.51054191589356	32.62048339843751	-6.057449340820316	-3.232367038726808	6.206959724426273	0.1011283025145531	-11.16149520874024	10.87395000457764	0.1607277691364289	-21.55574607849122	-0.3173874318599702	-8.526512638538793e-16	1.684415340423585	1.419765830039978	-4.855375495140903e-16	1.313223242759705	-858.6171875000005	979.2936401367192	298.6902465820314	-858.6171875000005	0	298.6902465820314	
